<!-- Generated by IcoMoon.io -->
<svg version="1.1" xmlns="http://www.w3.org/2000/svg" width="32" height="32" viewBox="0 0 32 32">
<title>filters</title>
<path d="M17.147 5.673h11.474v2.295h-11.474v-2.295z"></path>
<path d="M26.327 14.853h2.295v2.295h-2.295v-2.295z"></path>
<path d="M17.147 24.032h11.474v2.295h-11.474v-2.295z"></path>
<path d="M10.263 11.41c2.524 0 4.59-2.065 4.59-4.59s-2.065-4.59-4.59-4.59c-2.18 0-3.901 1.492-4.475 3.442h-2.41v2.295h2.41c0.574 1.951 2.295 3.442 4.475 3.442zM10.263 4.526c1.262 0 2.295 1.033 2.295 2.295s-1.033 2.295-2.295 2.295-2.295-1.033-2.295-2.295 1.033-2.295 2.295-2.295z"></path>
<path d="M19.442 20.59c2.524 0 4.59-2.065 4.59-4.59s-2.065-4.59-4.59-4.59c-2.18 0-3.901 1.492-4.475 3.442h-11.589v2.295h11.589c0.574 1.951 2.295 3.442 4.475 3.442zM19.442 13.705c1.262 0 2.295 1.033 2.295 2.295s-1.033 2.295-2.295 2.295-2.295-1.033-2.295-2.295 1.033-2.295 2.295-2.295z"></path>
<path d="M10.263 20.59c-2.18 0-3.901 1.492-4.475 3.442h-2.41v2.295h2.41c0.459 1.951 2.295 3.442 4.475 3.442 2.524 0 4.59-2.065 4.59-4.59s-2.065-4.59-4.59-4.59zM10.263 27.474c-1.262 0-2.295-1.033-2.295-2.295s1.033-2.295 2.295-2.295 2.295 1.033 2.295 2.295-1.033 2.295-2.295 2.295z"></path>
</svg>
