<!-- Generated by IcoMoon.io -->
<svg version="1.1" xmlns="http://www.w3.org/2000/svg" width="32" height="32" viewBox="0 0 32 32">
<title>legend</title>
<path d="M9.625 6.438c0 1.76-1.427 3.188-3.188 3.188s-3.188-1.427-3.188-3.188c0-1.76 1.427-3.188 3.188-3.188s3.188 1.427 3.188 3.188z"></path>
<path d="M12.812 4.844h15.937v3.188h-15.937v-3.188z"></path>
<path d="M9.625 16c0 1.76-1.427 3.188-3.188 3.188s-3.188-1.427-3.188-3.188c0-1.76 1.427-3.188 3.188-3.188s3.188 1.427 3.188 3.188z"></path>
<path d="M12.812 14.406h15.937v3.188h-15.937v-3.188z"></path>
<path d="M9.625 25.562c0 1.76-1.427 3.188-3.188 3.188s-3.188-1.427-3.188-3.188c0-1.76 1.427-3.188 3.188-3.188s3.188 1.427 3.188 3.188z"></path>
<path d="M12.812 23.969h15.937v3.188h-15.937v-3.188z"></path>
</svg>
